<svg width="180" height="67" viewBox="0 0 180 67" fill="none" xmlns="http://www.w3.org/2000/svg">
<path d="M61.9541 47.4013H64.0725V40.808L69.0309 40.808V38.5354H64.0725V35.991C64.0725 34.0407 65.1206 33.1664 66.7039 33.1664C68.7187 33.1664 69.0309 34.2148 69.0309 34.2148H70.9985C70.9985 34.2148 70.5758 31.1937 66.7039 31.1937C63.784 31.1937 61.9541 32.7853 61.9541 35.991V47.4013ZM72.8585 47.4013H74.9769V31.4851H72.8585V47.4013Z" fill="black"/>
<path d="M83.6697 47.6927C86.9254 47.6927 89.1107 45.7873 89.1107 42.1109V36.3272H86.9923V42.1109C86.9923 44.5095 85.6766 45.72 83.6697 45.72C81.6627 45.72 80.3471 44.5095 80.3471 42.1109V36.3272H78.2286V42.1109C78.2286 45.8097 80.414 47.6927 83.6697 47.6927Z" fill="black"/>
<path d="M93.4131 34.5787C94.2605 34.5787 94.8849 33.9286 94.8849 33.0767C94.8849 32.2249 94.2605 31.5972 93.4131 31.5972C92.5658 31.5972 91.9414 32.2249 91.9414 33.0767C91.9414 33.9286 92.5658 34.5787 93.4131 34.5787ZM92.3651 47.4013H94.4835V36.3272H92.3651V47.4013Z" fill="black"/>
<path d="M103.215 47.6927C106.626 47.6927 109.079 45.3838 109.079 41.7746V31.4851H106.961V38.2775C106.158 36.8428 104.642 36.0358 102.858 36.0358C99.9812 36.0358 97.2607 38.1206 97.2607 41.797C97.2607 45.2717 99.7136 47.6927 103.215 47.6927ZM103.192 45.72C100.918 45.72 99.4014 44.106 99.4014 41.8643C99.4014 39.6226 100.918 38.0085 103.192 38.0085C105.445 38.0085 106.961 39.6226 106.961 41.8643C106.961 44.106 105.445 45.72 103.192 45.72Z" fill="black"/>
<path d="M117.428 47.6927C119.993 47.6927 122 46.3701 122.847 44.3077H120.506C119.859 45.2717 118.855 45.72 117.428 45.72C115.51 45.72 114.039 44.6216 113.726 42.6489H123.315V41.8643C123.315 38.5017 120.907 36.0358 117.428 36.0358C113.949 36.0358 111.497 38.5017 111.497 41.8643C111.497 45.2268 113.949 47.6927 117.428 47.6927ZM113.793 40.7434C114.217 38.9949 115.6 38.0085 117.428 38.0085C119.212 38.0085 120.662 38.9725 121.085 40.7434H113.793Z" fill="black"/>
<path d="M129.891 47.6927C132.656 47.6927 134.462 46.2356 134.462 43.9939C134.462 41.4608 132.121 41.1021 130.203 40.8555C128.843 40.6762 127.683 40.5641 127.683 39.5105C127.683 38.6362 128.486 37.9637 129.891 37.9637C131.229 37.9637 132.01 38.5914 132.076 39.4432H134.173C134.128 37.5378 132.5 36.0358 129.869 36.0358C127.237 36.0358 125.543 37.5153 125.543 39.6898C125.543 42.2229 127.862 42.5816 129.78 42.8282C131.162 43.0075 132.322 43.142 132.322 44.1956C132.322 45.0699 131.497 45.7648 129.891 45.7648C128.352 45.7648 127.505 45.1147 127.46 44.1956H125.32C125.387 46.2132 127.126 47.6927 129.891 47.6927Z" fill="black"/>
<path d="M138.358 34.5787C139.205 34.5787 139.83 33.9286 139.83 33.0767C139.83 32.2249 139.205 31.5972 138.358 31.5972C137.51 31.5972 136.886 32.2249 136.886 33.0767C136.886 33.9286 137.51 34.5787 138.358 34.5787ZM137.31 47.4013H139.428V36.3272H137.31V47.4013Z" fill="black"/>
<path d="M148.182 52.4227C151.437 52.4227 154.024 50.7639 154.024 46.5046V41.9539C154.024 38.3896 151.616 36.0358 148.137 36.0358C144.658 36.0358 142.205 38.5017 142.205 41.8643C142.205 45.6303 144.926 47.603 147.78 47.603C149.631 47.603 151.17 46.7512 151.928 45.3165V46.5943C151.928 49.4861 150.434 50.5621 148.182 50.5621C146.576 50.5621 145.283 50.0017 144.77 48.7239H142.607C143.365 51.2795 145.483 52.4227 148.182 52.4227ZM148.137 45.6079C145.862 45.6079 144.346 44.106 144.346 41.8643C144.346 39.6226 145.862 38.0085 148.137 38.0085C150.411 38.0085 151.928 39.6226 151.928 41.8643C151.928 44.106 150.411 45.6079 148.137 45.6079Z" fill="black"/>
<path d="M156.887 47.4013H159.006V41.6401C159.006 39.2415 160.321 38.0085 162.328 38.0085C164.335 38.0085 165.651 39.2415 165.651 41.6401V47.4013H167.769V41.6401C167.769 37.9188 165.584 36.0358 162.328 36.0358C159.072 36.0358 156.887 37.9413 156.887 41.6401V47.4013Z" fill="black"/>
<path d="M174.792 47.6927C177.557 47.6927 179.364 46.2356 179.364 43.9939C179.364 41.4608 177.022 41.1021 175.104 40.8555C173.744 40.6762 172.585 40.5641 172.585 39.5105C172.585 38.6362 173.387 37.9637 174.792 37.9637C176.13 37.9637 176.911 38.5914 176.978 39.4432H179.074C179.029 37.5378 177.401 36.0358 174.77 36.0358C172.139 36.0358 170.444 37.5153 170.444 39.6898C170.444 42.2229 172.763 42.5816 174.681 42.8282C176.063 43.0075 177.223 43.142 177.223 44.1956C177.223 45.0699 176.398 45.7648 174.792 45.7648C173.254 45.7648 172.406 45.1147 172.362 44.1956H170.221C170.288 46.2132 172.027 47.6927 174.792 47.6927Z" fill="black"/>
<path d="M78.9433 15.4215C78.0542 16.3239 77.0663 17.0258 75.8809 17.4268C68.4718 20.5351 58.3955 20.3345 51.9744 32.4666C48.7144 38.6831 48.912 43.5961 51.0853 48.6093C51.7768 50.3138 52.7647 51.4167 53.555 52.1186C56.0247 54.4247 57.4077 53.4221 59.0871 55.3271C60.3713 56.6305 60.3713 58.7361 59.0871 60.0396C57.8028 61.343 55.7283 61.4433 54.4441 60.0396C50.8877 56.1292 48.4181 54.7255 45.7508 57.8337C45.4544 58.2348 45.0593 58.5356 44.7629 58.9366C34.6867 69.264 18.0904 69.3642 7.71778 58.9366C-2.55607 48.6093 -2.55607 31.7648 7.619 21.3372C16.1147 12.6141 29.1546 11.1101 39.1321 16.9255C50.9865 23.3425 58.0004 19.4321 62.2482 10.5085C64.1252 6.49793 65.2119 4.19183 68.0767 1.6852C70.9415 -0.821428 75.3869 -0.620897 78.8445 2.88839C82.302 6.2974 82.302 11.9123 78.9433 15.4215Z" fill="#3F4AFE"/>
<path d="M37.6908 31.6265H35.1441V37.5493C34.2625 36.947 33.1851 36.6458 32.0097 36.6458C28.8752 36.6458 26.4265 39.2559 26.4265 42.3678C26.4265 45.5802 28.9732 48.0899 32.0097 48.0899C35.1441 48.0899 37.5929 45.4798 37.5929 42.3678V31.6265H37.6908ZM32.0097 45.5802C30.3445 45.5802 28.8752 44.1748 28.8752 42.3678C28.8752 40.6613 30.2466 39.1555 32.0097 39.1555C33.6748 39.1555 35.1441 40.5609 35.1441 42.3678C35.1441 44.0744 33.7728 45.5802 32.0097 45.5802Z" fill="white"/>
<path d="M16.8951 47.6566H19.0261V41.1356H24.0139V38.8934H19.0261V36.3713C19.0261 34.4423 20.1939 33.5776 21.6731 33.5776C23.3661 33.5776 24.0139 34.6145 24.0139 34.6145H25.9932C25.9932 34.6145 25.7013 31.6265 21.6731 31.6265C18.8242 31.6265 16.8951 33.2007 16.8951 36.3713V47.6566Z" fill="white"/>
</svg>
