<svg width="48" height="39" viewBox="0 0 48 39" fill="none" xmlns="http://www.w3.org/2000/svg">
<path fill-rule="evenodd" clip-rule="evenodd" d="M46.5227 9.4403C45.9987 9.95247 45.4165 10.3508 44.7179 10.5785C43.6977 10.9907 42.5917 11.3003 41.4474 11.6207C37.6943 12.6715 33.5294 13.8377 30.6294 19.1146C28.7083 22.6429 28.8247 25.4313 30.1055 28.2767C30.513 29.2441 31.0952 29.8701 31.5609 30.2685C32.3074 30.9398 32.8855 31.1171 33.405 31.2764C33.8984 31.4277 34.339 31.5629 34.8211 32.0895C35.5779 32.8293 35.5779 34.0244 34.8211 34.7642C34.0642 35.504 32.8417 35.5609 32.0849 34.7642C29.989 32.5448 28.5336 31.7481 26.9618 33.5122C26.8744 33.626 26.7726 33.7256 26.6707 33.8252C26.5688 33.9248 26.4669 34.0244 26.3796 34.1382C20.4415 39.9997 10.661 40.0566 4.54823 34.1382C-1.50634 28.2767 -1.50634 18.7162 4.49001 12.7978C9.49667 7.84689 17.1813 6.99328 23.0612 10.2939C30.0473 13.936 34.1807 11.7166 36.684 6.65183C37.7901 4.37553 38.4305 3.06666 40.1188 1.64397C41.8071 0.221282 44.4269 0.335097 46.4645 2.32686C48.502 4.26172 48.502 7.44854 46.5227 9.4403ZM21.3086 18.7734H19.8532V22.131C19.3292 21.7895 18.6889 21.6188 17.9902 21.6188C16.1273 21.6188 14.6719 23.0984 14.6719 24.8625C14.6719 26.6836 16.1855 28.1063 17.9902 28.1063C19.8532 28.1063 21.3086 26.6267 21.3086 24.8625V18.7734ZM17.9902 26.6836C17.0006 26.6836 16.1273 25.8869 16.1273 24.8625C16.1273 23.8951 16.9423 23.0415 17.9902 23.0415C18.9799 23.0415 19.8532 23.8382 19.8532 24.8625C19.8532 25.83 19.0382 26.6836 17.9902 26.6836ZM10.5469 22.0155C10.5469 20.1944 12.0605 18.7717 13.8652 18.7717C13.9234 18.7717 13.9234 18.7718 13.9817 18.7148V20.1375H13.8652C12.8173 20.1375 12.0023 20.9911 12.0023 21.9586V22.3H13.3995V23.7796H12.0605V28.0477H10.5469V23.7796V22.3V22.0155Z" fill="#3F4AFE"/>
</svg>
